# xmcd CD database file
#
# Track frame offsets:
#	150
#	23800
#	40145
#	63747
#	83610
#	110912
#	125062
#	154387
#
# Disc length: 2300 seconds
#
# Revision: 0
# Processed by: cddbd v1.5.1PL0 Copyright (c) Steve Scherf et al.
# Submitted via: CDex 1.51
#
DISCID=6d08fa08
DTITLE=Kenny Barron - 1 and 1 and 1
DYEAR=1984
DGENRE=Jazz
TTITLE0=The Man I Love
TTITLE1=United Blues
TTITLE2=Prelude To A Kiss
TTITLE3=C Jam Blues
TTITLE4=In Your Own Sweet Way
TTITLE5=Giant Steps
TTITLE6='Round Midnight
TTITLE7=Beautiful Love
EXTD=YEAR: 1984
EXTT0=
EXTT1=
EXTT2=
EXTT3=
EXTT4=
EXTT5=
EXTT6=
EXTT7=
PLAYORDER=
